<svg width="31" height="31" viewBox="0 0 31 31" fill="none" xmlns="http://www.w3.org/2000/svg">
<path d="M5.07014 5.07013L5.07013 5.07014C2.28462 7.85577 0.75 11.5606 0.75 15.5C0.75 19.4394 2.28462 23.1442 5.07013 25.9299L5.24691 25.7531L5.07014 25.9299C7.85577 28.7154 11.5606 30.25 15.5 30.25C19.4394 30.25 23.1442 28.7154 25.9299 25.9299L25.7531 25.7531L25.9299 25.9299C28.7154 23.1442 30.25 19.4394 30.25 15.5C30.25 11.5606 28.7154 7.85577 25.9299 5.07014L25.7531 5.24691L25.9299 5.07013C23.1442 2.28462 19.4394 0.75 15.5 0.75C11.5606 0.75 7.85577 2.28462 5.07014 5.07013ZM21.9162 16.2278L21.6737 16.1672L21.9162 16.2278C22.001 15.8887 21.9258 15.5347 21.7108 15.2593C21.4957 14.9839 21.1705 14.8252 20.821 14.8252H17.7703C17.3976 14.8252 17.0955 15.1273 17.0955 15.5C17.0955 15.8727 17.3976 16.1748 17.7703 16.1748H20.5383L19.9676 18.4576H17.7703C17.3976 18.4576 17.0955 18.7597 17.0955 19.1324V28.8061C16.5697 28.8682 16.0373 28.9004 15.5 28.9004C11.9201 28.9004 8.55582 27.5069 6.02448 24.9755C3.49314 22.4442 2.09961 19.0799 2.09961 15.5C2.09961 11.9201 3.49314 8.55582 6.02448 6.02448C8.55582 3.49314 11.9201 2.09961 15.5 2.09961C19.0799 2.09961 22.4442 3.49314 24.9755 6.02448C27.5069 8.55582 28.9004 11.9201 28.9004 15.5C28.9004 19.0799 27.5069 22.4442 24.9755 24.9755C23.1531 26.7979 20.8994 28.0301 18.445 28.5776V19.8071H20.1399C20.6587 19.8071 21.1093 19.4553 21.2351 18.952L21.9162 16.2278Z" fill="white" stroke="white" stroke-width="0.5"/>
<path d="M20.9486 6.19849H18.2244C15.0981 6.19849 12.5552 8.74149 12.5552 11.8677V14.8253H10.0517C9.429 14.8253 8.92285 15.3314 8.92285 15.9541V18.6783C8.92285 19.301 9.429 19.8072 10.0517 19.8072H12.5552V27.3051C12.5552 27.6778 12.8573 27.9799 13.23 27.9799C13.6026 27.9799 13.9048 27.6778 13.9048 27.3051V19.1324C13.9048 18.7597 13.6026 18.4576 13.23 18.4576H10.2725V16.1749H13.23C13.6026 16.1749 13.9048 15.8727 13.9048 15.5001V11.8677C13.9048 9.4861 15.8428 7.5481 18.2244 7.5481H20.7278V9.83079H19.1325C18.0091 9.83079 17.0956 10.7443 17.0956 11.8677V13.6838C17.0956 14.0565 17.3977 14.3586 17.7704 14.3586C18.1431 14.3586 18.4452 14.0565 18.4452 13.6838V11.8677C18.4452 11.4889 18.7537 11.1804 19.1325 11.1804H20.9486C21.5713 11.1804 22.0774 10.6743 22.0774 10.0516V7.32732C22.0774 6.7047 21.5713 6.19849 20.9486 6.19849Z" fill="white" stroke="white" stroke-width="0.5"/>
</svg>
