<svg width="31" height="31" viewBox="0 0 31 31" fill="none" xmlns="http://www.w3.org/2000/svg">
<path d="M15.5 0.75C19.4393 0.75 23.1442 2.28456 25.9298 5.0702C28.7154 7.85577 30.25 11.5607 30.25 15.5C30.25 19.4393 28.7154 23.1442 25.9298 25.9298C23.1442 28.7154 19.4393 30.25 15.5 30.25C11.5607 30.25 7.85577 28.7154 5.0702 25.9298C2.28456 23.1442 0.75 19.4393 0.75 15.5C0.75 11.5607 2.28456 7.85577 5.07019 5.0702C5.07019 5.07019 5.07019 5.07019 5.0702 5.07019M15.5 0.75L25.753 5.24697C23.0143 2.50823 19.373 1 15.5 1C11.627 1 7.98566 2.50823 5.24697 5.24697L5.0702 5.07019M15.5 0.75C11.5607 0.75 7.85577 2.28456 5.0702 5.07019M15.5 0.75L5.0702 5.07019M15.5 28.8342C8.14769 28.8342 2.16577 22.8523 2.16577 15.5C2.16577 8.14769 8.14769 2.16577 15.5 2.16577C22.8523 2.16577 28.8342 8.14769 28.8342 15.5C28.8342 22.8523 22.8523 28.8342 15.5 28.8342Z" fill="white" stroke="white" stroke-width="0.5"/>
<path d="M23.3394 20.452H23.3393V20.702C23.3393 22.156 22.156 23.3393 20.702 23.3393H10.2977C8.84372 23.3393 7.66039 22.156 7.66039 20.702V10.2977C7.66039 8.84372 8.84372 7.66039 10.2977 7.66039H20.7021C22.1561 7.66039 23.3394 8.84372 23.3394 10.2977V20.452ZM20.702 6.24463H10.2977C8.06257 6.24463 6.24463 8.06263 6.24463 10.2977V20.7021C6.24463 22.9372 8.06263 24.7552 10.2977 24.7552H20.7021C22.9372 24.7552 24.7552 22.9372 24.7552 20.7021V10.2977C24.7551 8.06257 22.9372 6.24463 20.702 6.24463Z" fill="white" stroke="white" stroke-width="0.5"/>
<path d="M18.2554 18.6342C18.2554 18.6342 18.2554 18.6342 18.2554 18.6342C18.5764 18.9551 18.5127 19.4894 18.1294 19.7287C17.292 20.2516 16.289 20.5332 15.219 20.4739C15.219 20.4739 15.219 20.4739 15.219 20.4739L15.2328 20.2243L18.2554 18.6342ZM18.2554 18.6342L18.2489 18.6277L18.2554 18.6342ZM20.4737 15.2153C20.3311 12.6781 18.2676 10.6382 15.7291 10.5237L15.7179 10.7735L18.2489 18.6277C18.0132 18.3918 17.6512 18.3599 17.3754 18.5312L17.3754 18.5312C16.8202 18.8762 16.1643 19.0731 15.462 19.0657C13.4805 19.0449 11.88 17.3795 11.9358 15.3984L11.9358 15.3984C11.992 13.4041 13.6942 11.814 15.729 11.9415C17.4815 12.0514 18.9092 13.4501 19.0536 15.1999C19.1124 15.9138 18.959 16.5872 18.6509 17.1665L18.6509 17.1666C18.5067 17.4379 18.5493 17.7758 18.7718 17.9984L18.7718 17.9984L18.7718 17.9984L18.7719 17.9984L18.7719 17.9984L18.7719 17.9985L18.7719 17.9985L18.7719 17.9985L18.7719 17.9985L18.7719 17.9985L18.772 17.9985L18.772 17.9985L18.772 17.9985L18.772 17.9986L18.772 17.9986L18.772 17.9986L18.772 17.9986L18.772 17.9986L18.7721 17.9986L18.7721 17.9986L18.7721 17.9987L18.7721 17.9987L18.7721 17.9987L18.7721 17.9987L18.7721 17.9987L18.7722 17.9987L18.7722 17.9987L18.7722 17.9988L18.7722 17.9988L18.7722 17.9988L18.7722 17.9988L18.7722 17.9988L18.7723 17.9988L18.7723 17.9988L18.7723 17.9988L18.7723 17.9989L18.7723 17.9989L18.7723 17.9989L18.7723 17.9989L18.7724 17.9989L18.7724 17.9989L18.7724 17.9989L18.7724 17.999L18.7724 17.999L18.7724 17.999L18.7724 17.999L18.7724 17.999L18.7725 17.999L18.7725 17.999L18.7725 17.9991L18.7725 17.9991L18.7725 17.9991L18.7725 17.9991L18.7725 17.9991L18.7726 17.9991L18.7726 17.9991L18.7726 17.9991L18.7726 17.9992L18.7726 17.9992L18.7726 17.9992L18.7726 17.9992L18.7727 17.9992L18.7727 17.9992L18.7727 17.9992L18.7727 17.9993L18.7727 17.9993L18.7727 17.9993L18.7727 17.9993L18.7727 17.9993L18.7728 17.9993L18.7728 17.9993L18.7728 17.9994L18.7728 17.9994L18.7728 17.9994L18.7728 17.9994L18.7728 17.9994L18.7729 17.9994L18.7729 17.9994L18.7729 17.9995L18.7729 17.9995L18.7729 17.9995L18.7729 17.9995L18.7729 17.9995L18.773 17.9995L18.773 17.9995L18.773 17.9995L18.773 17.9996L18.773 17.9996L18.773 17.9996L18.773 17.9996L18.773 17.9996L18.7731 17.9996L18.7731 17.9996L18.7731 17.9997L18.7731 17.9997L18.7731 17.9997L18.7731 17.9997L18.7731 17.9997L18.7732 17.9997L18.7732 17.9997L18.7732 17.9998L18.7732 17.9998L18.7732 17.9998L18.7732 17.9998L18.7732 17.9998L18.7733 17.9998L18.7733 17.9998L18.7733 17.9998L18.7733 17.9999L18.7733 17.9999L18.7733 17.9999L18.7733 17.9999L18.7733 17.9999L18.7734 17.9999L18.7734 17.9999L18.7734 18L18.7734 18L18.7734 18L18.7734 18L18.7734 18L18.7735 18L18.7735 18L18.7735 18.0001L18.7735 18.0001L18.7735 18.0001L18.7735 18.0001L18.7735 18.0001L18.7736 18.0001L18.7736 18.0001L18.7736 18.0002L18.7736 18.0002L18.7736 18.0002L18.7736 18.0002L18.7736 18.0002L18.7737 18.0002L18.7737 18.0002L18.7737 18.0002L18.7737 18.0003L18.7737 18.0003L18.7737 18.0003L18.7737 18.0003L18.7737 18.0003L18.7738 18.0003L18.7738 18.0003L18.7738 18.0004L18.7738 18.0004L18.7738 18.0004L18.7738 18.0004L18.7738 18.0004L18.7739 18.0004L18.7739 18.0004L18.7739 18.0005L18.7739 18.0005L18.7739 18.0005L18.7739 18.0005L18.7739 18.0005L18.774 18.0005L18.774 18.0005L18.774 18.0005L18.774 18.0006L18.774 18.0006L18.774 18.0006L18.774 18.0006L18.774 18.0006L18.7741 18.0006L18.7741 18.0006L18.7741 18.0007L18.7741 18.0007L18.7741 18.0007L18.7741 18.0007L18.7741 18.0007L18.7742 18.0007L18.7742 18.0007L18.7742 18.0008L18.7742 18.0008L18.7742 18.0008L18.7742 18.0008L18.7742 18.0008L18.7743 18.0008L18.7743 18.0008L18.7743 18.0009L18.7743 18.0009L18.7743 18.0009L18.7743 18.0009L18.7743 18.0009L18.7744 18.0009L18.7744 18.0009L18.7744 18.0009L18.7744 18.001L18.7744 18.001L18.7744 18.001L18.7744 18.001L18.7744 18.001L18.7745 18.001L18.7745 18.001L18.7745 18.0011L18.7745 18.0011L18.7745 18.0011L18.7745 18.0011L18.7745 18.0011L18.7746 18.0011L18.7746 18.0011L18.7746 18.0012L18.7746 18.0012L18.7746 18.0012L18.7746 18.0012L18.7746 18.0012L18.7747 18.0012L18.7747 18.0012L18.7747 18.0013L18.7747 18.0013L18.7747 18.0013L18.7747 18.0013L18.7747 18.0013L18.7748 18.0013L18.7748 18.0013L18.7748 18.0013L18.7748 18.0014L18.7748 18.0014L18.7748 18.0014L18.7748 18.0014L18.7748 18.0014L18.7749 18.0014L18.7749 18.0014L18.7749 18.0015L18.7749 18.0015L18.7749 18.0015L18.7749 18.0015L18.7749 18.0015L18.775 18.0015L18.775 18.0015L18.775 18.0016L18.775 18.0016L18.775 18.0016L18.775 18.0016L18.775 18.0016L18.7751 18.0016L18.7751 18.0016L18.7751 18.0016L18.7751 18.0017L18.7751 18.0017L18.7751 18.0017L18.7751 18.0017L18.7752 18.0017L18.7752 18.0017L18.7752 18.0017L18.7752 18.0018L18.7752 18.0018L18.7752 18.0018L18.7752 18.0018L18.7752 18.0018L18.7753 18.0018L18.7753 18.0018L18.7753 18.0019L18.7753 18.0019L18.7753 18.0019L18.7753 18.0019L18.7753 18.0019L18.7754 18.0019L18.7754 18.0019L18.7754 18.002L18.7754 18.002L18.7754 18.002L18.7754 18.002L18.7754 18.002L18.7755 18.002L18.7755 18.002L18.7755 18.002L18.7755 18.0021L18.7755 18.0021L18.7755 18.0021L18.7755 18.0021L18.7755 18.0021L18.7756 18.0021L18.7756 18.0021L18.7756 18.0022L18.7756 18.0022L18.7756 18.0022L18.7756 18.0022L18.7756 18.0022L18.7757 18.0022L18.7757 18.0022L18.7757 18.0023L18.7757 18.0023L18.7757 18.0023L18.7757 18.0023L18.7757 18.0023L18.7758 18.0023L18.7758 18.0023L18.7758 18.0024L18.7758 18.0024L18.7758 18.0024L18.7758 18.0024L18.7758 18.0024L18.7759 18.0024L18.7759 18.0024L18.7759 18.0024L18.7759 18.0025L18.7759 18.0025L18.7759 18.0025L18.7759 18.0025L18.7759 18.0025L18.776 18.0025L18.776 18.0025L18.776 18.0026L18.776 18.0026L18.776 18.0026L18.776 18.0026L18.776 18.0026L18.7761 18.0026L18.7761 18.0026L18.7761 18.0027L18.7761 18.0027L18.7761 18.0027L18.7761 18.0027L18.7761 18.0027L18.7762 18.0027L18.7762 18.0027L18.7762 18.0028L18.7762 18.0028L18.7762 18.0028L18.7762 18.0028L18.7762 18.0028L18.7763 18.0028L18.7763 18.0028L18.7763 18.0028L18.7763 18.0029L18.7763 18.0029L18.7763 18.0029L18.7763 18.0029L18.7763 18.0029L18.7764 18.0029L18.7764 18.0029L18.7764 18.003L18.7764 18.003L18.7764 18.003L18.7764 18.003L18.7764 18.003L18.7765 18.003L18.7765 18.003L18.7765 18.0031L18.7765 18.0031L18.7765 18.0031L18.7765 18.0031L18.7765 18.0031L18.7766 18.0031L18.7766 18.0031L18.7766 18.0031L18.7766 18.0032L18.7766 18.0032L18.7766 18.0032L18.7766 18.0032L18.7767 18.0032L18.7767 18.0032L18.7767 18.0032L18.7767 18.0033L18.7767 18.0033L18.7767 18.0033L18.7767 18.0033L18.7767 18.0033L18.7768 18.0033L18.7768 18.0033L18.7768 18.0034L18.7768 18.0034L18.7768 18.0034L18.7768 18.0034L18.7768 18.0034L18.7769 18.0034L18.7769 18.0034L18.7769 18.0035L18.7769 18.0035L18.7769 18.0035L18.7769 18.0035L18.7769 18.0035L18.777 18.0035L18.777 18.0035L18.777 18.0035L18.777 18.0036L18.777 18.0036L18.777 18.0036L18.777 18.0036L18.7771 18.0036L18.7771 18.0036L18.7771 18.0036L18.7771 18.0037L18.7771 18.0037L18.7771 18.0037L18.7771 18.0037L18.7771 18.0037L18.7772 18.0037L18.7772 18.0037L18.7772 18.0038L18.7772 18.0038L18.7772 18.0038L18.7772 18.0038L18.7772 18.0038L18.7773 18.0038L18.7773 18.0038L18.7773 18.0039L18.7773 18.0039L18.7773 18.0039L18.7773 18.0039L18.7773 18.0039L18.7774 18.0039L18.7774 18.0039L18.7774 18.0039L18.7774 18.004L18.7774 18.004L18.7774 18.004L18.7774 18.004L18.7774 18.004L18.7775 18.004L18.7775 18.004L18.7775 18.0041L18.7775 18.0041L18.7775 18.0041L18.7775 18.0041L18.7775 18.0041L18.7776 18.0041L18.7776 18.0041L18.7776 18.0042L18.7776 18.0042L18.7776 18.0042L18.7776 18.0042L18.7776 18.0042L18.7777 18.0042L18.7777 18.0042L18.7777 18.0042L18.7777 18.0043L18.7777 18.0043L18.7777 18.0043L18.7777 18.0043L18.7777 18.0043L18.7778 18.0043L18.7778 18.0043L18.7778 18.0044L18.7778 18.0044L18.7778 18.0044L18.7778 18.0044L18.7778 18.0044L18.7779 18.0044L18.7779 18.0044L18.7779 18.0045L18.7779 18.0045L18.7779 18.0045L18.7779 18.0045L18.7779 18.0045L18.778 18.0045L18.778 18.0045L18.778 18.0045L18.778 18.0046L18.778 18.0046L18.778 18.0046L18.778 18.0046L18.7781 18.0046L18.7781 18.0046L18.7781 18.0046L18.7781 18.0047L18.7781 18.0047L18.7781 18.0047L18.7781 18.0047L18.7781 18.0047L18.7782 18.0047L18.7782 18.0047L18.7782 18.0048L18.7782 18.0048L18.7782 18.0048L18.7782 18.0048L18.7782 18.0048L18.7783 18.0048L18.7783 18.0048L18.7783 18.0049L18.7783 18.0049L18.7783 18.0049L18.7783 18.0049L18.7783 18.0049L18.7784 18.0049L18.7784 18.0049L18.7784 18.0049L18.7784 18.005L18.7784 18.005L18.7784 18.005L18.7784 18.005L18.7784 18.005L18.7785 18.005L18.7785 18.005L18.7785 18.0051L18.7785 18.0051L18.7785 18.0051L18.7785 18.0051L18.7785 18.0051L18.7786 18.0051L18.7786 18.0051L18.7786 18.0052L18.7786 18.0052L18.7786 18.0052L18.7786 18.0052L18.7786 18.0052L18.7787 18.0052L18.7787 18.0052L18.7787 18.0052L18.7787 18.0053L18.7787 18.0053L18.7787 18.0053L18.7787 18.0053L18.7787 18.0053L18.7788 18.0053L18.7788 18.0053L18.7788 18.0054L18.7788 18.0054L18.7788 18.0054L18.7788 18.0054L18.7788 18.0054C19.1088 18.3354 19.6704 18.2608 19.8939 17.8439L19.8939 17.8439C20.3104 17.0668 20.5273 16.1676 20.4737 15.2153ZM20.4737 15.2153L20.2241 15.2293L20.4737 15.2153C20.4737 15.2153 20.4737 15.2153 20.4737 15.2153Z" fill="white" stroke="white" stroke-width="0.5"/>
<path d="M20.3841 11.4763C21.1966 11.4763 21.8552 10.8177 21.8552 10.0052C21.8552 9.19279 21.1966 8.53418 20.3841 8.53418C19.5717 8.53418 18.9131 9.19279 18.9131 10.0052C18.9131 10.8177 19.5717 11.4763 20.3841 11.4763Z" fill="white" stroke="white" stroke-width="0.5"/>
</svg>
