<svg width="31" height="31" viewBox="0 0 31 31" fill="none" xmlns="http://www.w3.org/2000/svg">
<path d="M7.86638 26.5493L7.86763 26.5489C7.94385 26.5259 8.0234 26.5137 8.10388 26.5137C8.2527 26.5137 8.40215 26.5547 8.53288 26.6367C10.6177 27.9434 13.0266 28.6346 15.5 28.6346C22.7419 28.6346 28.6346 22.7419 28.6346 15.5C28.6346 8.25813 22.7419 2.36538 15.5 2.36538C8.25813 2.36538 2.36538 8.25813 2.36538 15.5C2.36538 18.0491 3.09601 20.5202 4.47826 22.6472L4.47862 22.6478C4.60514 22.8436 4.64163 23.0855 4.57695 23.3104L7.86638 26.5493ZM7.86638 26.5493L3.2827 27.9602M7.86638 26.5493L3.2827 27.9602M3.2827 27.9602C3.66219 26.5774 4.23198 24.5125 4.57692 23.3105L3.2827 27.9602ZM7.99418 28.1998C10.2618 29.5424 12.8489 30.25 15.5 30.25C23.6337 30.25 30.25 23.6337 30.25 15.5C30.25 7.36629 23.6337 0.75 15.5 0.75C7.36629 0.75 0.75 7.36629 0.75 15.5C0.75 18.2369 1.50031 20.8956 2.92491 23.2127C2.64062 24.2115 2.25488 25.6043 1.93479 26.7671C1.76894 27.3696 1.62065 27.9106 1.51312 28.3035L1.38531 28.7708L1.34978 28.9008L1.34009 28.9362L1.33742 28.9459L1.33658 28.949L1.33657 28.949L1.33602 28.951C1.25852 29.2352 1.34161 29.5393 1.55447 29.7441C1.76652 29.948 2.0728 30.0208 2.35258 29.9351L2.35284 29.935L7.99418 28.1998Z" fill="white" stroke="white" stroke-width="0.5"/>
<path d="M19.7764 16.8634C19.7965 16.8333 19.8199 16.8049 19.8461 16.7787C20.0547 16.5679 20.6029 16.313 21.3262 16.6738L19.7764 16.8634ZM19.7764 16.8634C19.0252 17.9905 18.0442 19.0686 17.757 19.1266L19.7764 16.8634ZM19.6693 16.6019C19.951 16.318 20.6145 16.0394 21.4378 16.4501L21.4384 16.4504C21.711 16.5873 22.0753 16.8252 22.5527 17.1369L22.5632 17.1438L22.5634 17.1439C23.203 17.5621 24.0729 18.1309 25.0936 18.6976L19.6693 16.6019ZM19.6693 16.6019C19.6319 16.6393 19.5979 16.6805 19.5684 16.7248L19.5684 16.7248C19.1994 17.2783 18.7737 17.8201 18.4067 18.2289C18.2229 18.4335 18.057 18.6012 17.9229 18.7193C17.8556 18.7785 17.7999 18.8221 17.7566 18.851C17.7498 18.8555 17.7437 18.8594 17.7382 18.8628C17.7205 18.8566 17.6987 18.8484 17.6724 18.8376C17.6035 18.8094 17.5161 18.7689 17.4117 18.7157C17.2033 18.6097 16.9362 18.4581 16.6293 18.2669C16.0155 17.8846 15.2507 17.3492 14.4883 16.7143C13.7097 16.0654 13.081 15.4349 12.6314 14.8663C12.2247 14.352 11.9792 13.9067 11.8875 13.5564C12.8403 12.5588 13.2404 11.8605 13.2404 11.0383C13.2404 10.9036 13.203 10.7402 13.1518 10.5732C13.0989 10.4007 13.0243 10.2029 12.9361 9.99189C12.7594 9.56944 12.5219 9.07978 12.276 8.60737C12.0298 8.13446 11.7732 7.6751 11.557 7.31248C11.449 7.13131 11.3502 6.9727 11.2671 6.84791C11.1884 6.72962 11.1123 6.62395 11.0518 6.56343L11.0517 6.56328C10.8275 6.33949 10.4919 6.23654 10.1019 6.20932C9.70735 6.18179 9.2202 6.22904 8.64951 6.34278L8.64886 6.34291C8.49333 6.37434 8.35003 6.45083 8.23725 6.5628L8.23662 6.56343C8.15887 6.64119 7.31022 7.50675 6.67162 8.85825C6.03187 10.2122 5.59464 12.0736 6.38038 14.1168L6.38039 14.1168C7.22029 16.3003 8.71528 18.6558 10.6864 20.57C12.6575 22.4842 15.1177 23.9694 17.8894 24.3852L17.8895 24.3852C18.5152 24.4788 19.1043 24.5257 19.6581 24.5257C21.292 24.5257 22.6215 24.1141 23.6128 23.2674C24.6037 22.4209 25.2266 21.1654 25.4979 19.5363C25.5549 19.1989 25.3922 18.8632 25.0938 18.6977L19.6693 16.6019ZM18.1293 22.7876L18.1292 22.7876C15.3411 22.3696 13.0567 20.7773 11.3253 18.9181C9.59353 17.0584 8.43155 14.949 7.88826 13.5368L7.88826 13.5368C7.3686 12.1862 7.58468 10.9043 8.00185 9.87735C8.38997 8.92195 8.94688 8.20176 9.22032 7.8821C9.39088 7.85574 9.56149 7.83678 9.71074 7.82651C9.82206 7.81885 9.91422 7.81657 9.98294 7.81818C10.184 8.12661 10.553 8.78668 10.8971 9.45336C11.0877 9.8227 11.2673 10.1875 11.4022 10.4862C11.4698 10.6358 11.5251 10.7663 11.5648 10.8713C11.6009 10.9669 11.6186 11.0273 11.6249 11.0578C11.6219 11.2471 11.5594 11.6054 10.4676 12.6978C10.3154 12.8494 10.2308 13.0549 10.2308 13.2691C10.2308 14.0806 10.6548 14.9353 11.2604 15.7405C11.8708 16.5521 12.6907 17.3464 13.5379 18.0428C14.3861 18.74 15.2692 19.3454 16.012 19.7777C16.3831 19.9938 16.7227 20.1687 17.0079 20.2904C17.2819 20.4074 17.5388 20.4903 17.7308 20.4903C18.0353 20.4903 18.338 20.3638 18.6177 20.1858C18.9002 20.006 19.1808 19.7597 19.4462 19.4878C19.9272 18.9951 20.3786 18.397 20.7235 17.8991C20.9097 17.9941 21.2389 18.2083 21.6796 18.4965L21.6796 18.4965C22.227 18.8542 22.9482 19.3253 23.7972 19.8188C23.587 20.7258 23.2099 21.5813 22.4381 22.1597C21.6186 22.7739 20.3021 23.114 18.1293 22.7876Z" fill="white" stroke="white" stroke-width="0.5"/>
</svg>
