<svg width="80" height="80" viewBox="0 0 80 80" fill="none" xmlns="http://www.w3.org/2000/svg">
<circle cx="40" cy="40" r="40" fill="#F6F6F6"/>
<path d="M44.0667 51.7501L46.6 54.2835L51.6667 49.2168" stroke="#FF5000" stroke-width="1.5" stroke-linecap="round" stroke-linejoin="round"/>
<path d="M40.2666 38.1163C40.0999 38.0997 39.8999 38.0997 39.7166 38.1163C35.7499 37.983 32.5999 34.733 32.5999 30.733C32.5832 26.6497 35.8999 23.333 39.9833 23.333C44.0666 23.333 47.3833 26.6497 47.3833 30.733C47.3833 34.733 44.2166 37.983 40.2666 38.1163Z" stroke="#FF5000" stroke-width="1.5" stroke-linecap="round" stroke-linejoin="round"/>
<path d="M39.9834 56.3501C36.9501 56.3501 33.9334 55.5835 31.6334 54.0501C27.6001 51.3501 27.6001 46.9501 31.6334 44.2668C36.2167 41.2001 43.7334 41.2001 48.3167 44.2668" stroke="#3D3D3D" stroke-width="1.5" stroke-linecap="round" stroke-linejoin="round"/>
</svg>
