<svg width="80" height="80" viewBox="0 0 80 80" fill="none" xmlns="http://www.w3.org/2000/svg">
<circle cx="40" cy="40" r="40" fill="#F6F6F6"/>
<path d="M56.6163 50.5497C56.6163 51.1497 56.483 51.7663 56.1997 52.3663C55.9163 52.9663 55.5497 53.533 55.0663 54.0663C54.2497 54.9663 53.3497 55.6163 52.333 56.033C51.333 56.4497 50.2497 56.6663 49.083 56.6663C47.383 56.6663 45.5663 56.2663 43.6497 55.4497C41.733 54.633 39.8163 53.533 37.9163 52.1497C35.9997 50.7497 34.183 49.1997 32.4497 47.483C30.733 45.7497 29.183 43.933 27.7997 42.033C26.433 40.133 25.333 38.233 24.533 36.3497C23.733 34.4497 23.333 32.633 23.333 30.8997C23.333 29.7663 23.533 28.683 23.933 27.683C24.333 26.6663 24.9663 25.733 25.8497 24.8997C26.9163 23.8497 28.083 23.333 29.3163 23.333C29.783 23.333 30.2497 23.433 30.6663 23.633C31.0997 23.833 31.483 24.133 31.783 24.5663L35.6497 30.0163C35.9497 30.433 36.1663 30.8163 36.3163 31.183C36.4663 31.533 36.5497 31.883 36.5497 32.1997C36.5497 32.5997 36.433 32.9997 36.1997 33.383C35.983 33.7663 35.6663 34.1663 35.2663 34.5663L33.9997 35.883C33.8163 36.0663 33.733 36.283 33.733 36.5497C33.733 36.683 33.7497 36.7997 33.783 36.933C33.833 37.0663 33.883 37.1663 33.9163 37.2663C34.2163 37.8163 34.733 38.533 35.4663 39.3997C36.2163 40.2663 37.0163 41.1497 37.883 42.033C38.783 42.9163 39.6497 43.733 40.533 44.483C41.3997 45.2163 42.1163 45.7163 42.683 46.0163C42.7663 46.0497 42.8663 46.0997 42.983 46.1497C43.1163 46.1997 43.2497 46.2163 43.3997 46.2163C43.683 46.2163 43.8997 46.1163 44.083 45.933L45.3497 44.683C45.7663 44.2663 46.1663 43.9497 46.5497 43.7497C46.933 43.5163 47.3163 43.3997 47.733 43.3997C48.0497 43.3997 48.383 43.4663 48.7497 43.6163C49.1163 43.7663 49.4997 43.983 49.9163 44.2663L55.433 48.183C55.8663 48.483 56.1663 48.833 56.3497 49.2497C56.5163 49.6663 56.6163 50.083 56.6163 50.5497Z" stroke="#3D3D3D" stroke-width="1.5" stroke-miterlimit="10"/>
<path d="M45 29.9495L48.3333 33.2829L55 26.6162" stroke="#FF5000" stroke-width="1.5" stroke-linecap="round" stroke-linejoin="round"/>
</svg>
