<svg width="80" height="80" viewBox="0 0 80 80" fill="none" xmlns="http://www.w3.org/2000/svg">
<circle cx="40" cy="40" r="40" fill="#F6F6F6"/>
<path d="M50 51.433H48.7333C47.4 51.433 46.1333 51.9497 45.2 52.883L42.35 55.6997C41.05 56.983 38.9334 56.983 37.6334 55.6997L34.7833 52.883C33.85 51.9497 32.5667 51.433 31.25 51.433H30C27.2333 51.433 25 49.2163 25 46.483V28.283C25 25.5497 27.2333 23.333 30 23.333H50C52.7667 23.333 55 25.5497 55 28.283V46.4663C55 49.1997 52.7667 51.433 50 51.433Z" stroke="#3D3D3D" stroke-width="1.5" stroke-miterlimit="10" stroke-linecap="round" stroke-linejoin="round"/>
<path d="M40.1168 34.917C40.0501 34.917 39.9501 34.917 39.8667 34.917C38.1167 34.8503 36.7334 33.4337 36.7334 31.667C36.7334 29.867 38.1834 28.417 39.9834 28.417C41.7834 28.417 43.2334 29.8837 43.2334 31.667C43.2501 33.4337 41.8668 34.867 40.1168 34.917Z" stroke="#FF5000" stroke-width="1.5" stroke-linecap="round" stroke-linejoin="round"/>
<path d="M35.4164 39.9336C33.1997 41.4169 33.1997 43.8336 35.4164 45.3169C37.9331 47.0003 42.0664 47.0003 44.5831 45.3169C46.7997 43.8336 46.7997 41.4169 44.5831 39.9336C42.0664 38.2669 37.9497 38.2669 35.4164 39.9336Z" stroke="#FF5000" stroke-width="1.5" stroke-linecap="round" stroke-linejoin="round"/>
</svg>
